<svg xmlns="http://www.w3.org/2000/svg" width="1600" height="900" viewBox="0 0 1600 900"><defs><linearGradient id="b" x2="1" y2="1"><stop stop-color="#0b2135"/><stop offset="1" stop-color="#195b78"/></linearGradient><linearGradient id="c" x2="0" y2="1"><stop stop-color="#f0f5f7"/><stop offset="1" stop-color="#728e9d"/></linearGradient></defs><rect width="1600" height="900" fill="url(#b)"/><path d="M700 660L1580 540V900H700Z" fill="#061b2b" opacity=".5"/><text x="190" y="205" font-family="Arial" font-size="28" font-weight="bold" fill="#8cd3e4">UK SELLER GUIDE • 2026</text><text x="185" y="310" font-family="Arial" font-size="78" font-weight="900" fill="white">SELLING AN</text><text x="185" y="410" font-family="Arial" font-size="82" font-weight="900" fill="white">IMPORTED</text><text x="185" y="510" font-family="Arial" font-size="82" font-weight="900" fill="white">CAR?</text><rect x="190" y="543" width="460" height="9" rx="5" fill="#f44d5a"/><text x="190" y="606" font-family="Arial" font-size="27" font-weight="bold" fill="#d7e8ed">REGISTRATION • HISTORY • VALUE</text><path d="M748 630Q790 593 892 583L948 522Q1015 470 1168 473Q1250 480 1315 576L1400 597Q1435 614 1435 662V696H732V658Z" fill="url(#c)" stroke="#ecfbff" stroke-width="7"/><path d="M961 572L1007 511Q1070 493 1160 495Q1221 498 1268 572Z" fill="#275773" stroke="#d5eef6" stroke-width="6"/><path d="M1114 497V574" stroke="#d5eef6" stroke-width="7"/><circle cx="872" cy="699" r="79" fill="#0c1821" stroke="#b0c5ce" stroke-width="14"/><circle cx="872" cy="699" r="45" fill="#627f8e"/><circle cx="1304" cy="699" r="79" fill="#0c1821" stroke="#b0c5ce" stroke-width="14"/><circle cx="1304" cy="699" r="45" fill="#627f8e"/><rect x="1100" y="155" width="280" height="245" rx="24" fill="#f3fbfd"/><text x="1130" y="205" font-family="Arial" font-size="22" font-weight="bold" fill="#163e51">DOCUMENT CHECK</text><g font-family="Arial" font-size="24" fill="#224b5d"><text x="1130" y="260">✓ UK V5C</text><text x="1130" y="310">✓ MOT &amp; VIN</text><text x="1130" y="360">✓ IMPORT RECORDS</text></g><rect x="190" y="750" width="460" height="58" rx="18" fill="#f5f9fb"/><text x="220" y="790" font-family="Arial" font-size="25" font-weight="bold" fill="#143b52">CARMAZIUM • SELL SMARTER</text></svg>